<svg id="Capa_1" enable-background="new 0 0 497.897 497.897" height="512" viewBox="0 0 497.897 497.897" width="512" xmlns="http://www.w3.org/2000/svg"><g><path d="m162.295 44.449h-46.621v61l24.621 12 22-12 9-28z" fill="#6058ad"/><path d="m162.295 44.449v61l23 5 22.931-5v-61z" fill="#453f81"/><path d="m115.674 105.449v71h46.621l9-33.796-9-37.204z" fill="#8298fc"/><path d="m162.295 105.449h45.931v71h-45.931z" fill="#706bef"/><path d="m65.191 172.242v117.793l38.104 67.414 59-7.33 16-94.67-16-83.207z" fill="#f0f7ff"/><path d="m351.26 172.242h-188.965v177.877l256.276-60.084z" fill="#d6e8fd"/><path d="m114.295 312.449-10.19-33.62h-104.105v29.563l47.425 116.21h114.87l20-59.153-20-53z" fill="#6058ad"/><path d="m220.484 278.829-10.189 33.62h-48v112.153h267.454l68.148-117.106v-28.667z" fill="#453f81"/><path d="m210.295 218.449h30v30h-30z" fill="#64bfed"/><path d="m270.295 218.449h30v30h-30z" fill="#64bfed"/><path d="m118.423 248.449h43.872l6-15-6-15h-43.872z" fill="#a1d7f3"/><path d="m162.295 218.449h18.128v30h-18.128z" fill="#64bfed"/><path d="m138.31 414.693c-10.806 4.698-20.138 8.756-40.017 8.756-19.88 0-29.212-4.058-40.018-8.756-12.122-5.271-25.861-11.244-51.98-11.244v30c19.88 0 29.212 4.058 40.018 8.756 12.122 5.271 25.861 11.244 51.98 11.244s39.857-5.974 51.979-11.244c4.006-1.742 7.81-3.395 12.022-4.786l8-16.97-8-14.146c-9.795 2.221-17.148 5.417-23.984 8.39z" fill="#8298fc"/><path d="m426.273 414.692c-29.383-15.027-74.861-14.901-103.964.001-10.807 4.697-20.141 8.755-40.021 8.755s-29.212-4.058-40.018-8.756c-12.122-5.271-25.861-11.244-51.981-11.244-11.388 0-20.421 1.136-27.994 2.854v31.116c7.152-2.362 15.484-3.97 27.994-3.97 19.88 0 29.213 4.058 40.02 8.756 12.121 5.271 25.86 11.244 51.979 11.244 26.121 0 39.86-5.974 51.982-11.244 10.807-4.698 20.141-8.756 40.021-8.756s29.214 4.058 40.021 8.756c12.122 5.271 25.861 11.244 51.982 11.244v-30c-19.881.001-29.214-4.057-40.021-8.756z" fill="#706bef"/></g></svg>